<svg xmlns="http://www.w3.org/2000/svg" xmlns:xlink="http://www.w3.org/1999/xlink" width="2000" zoomAndPan="magnify" viewBox="0 0 1500 749.999995" height="1000" preserveAspectRatio="xMidYMid meet" version="1.0"><defs><g/><clipPath id="96fb5b2235"><rect x="0" width="1378" y="0" height="656"/></clipPath></defs><g transform="matrix(1, 0, 0, 1, 61, 94)"><g clip-path="url(#96fb5b2235)"><g fill="#ffffff" fill-opacity="1"><g transform="translate(1.787339, 514.478593)"><g><path d="M 29.875 -497.96875 L 413.3125 -497.96875 L 413.3125 -453.65625 C 403.019531 -458.300781 390.648438 -462.613281 376.203125 -466.59375 C 361.765625 -470.582031 347.160156 -474.234375 332.390625 -477.546875 C 317.617188 -480.867188 304.335938 -483.441406 292.546875 -485.265625 C 280.765625 -487.097656 272.550781 -488.015625 267.90625 -488.015625 C 258.945312 -488.015625 252.304688 -485.769531 247.984375 -481.28125 C 243.671875 -476.800781 241.515625 -467.753906 241.515625 -454.140625 L 241.515625 0 L 201.671875 0 L 201.671875 -454.140625 C 201.671875 -467.753906 199.515625 -476.800781 195.203125 -481.28125 C 190.890625 -485.769531 184.25 -488.015625 175.28125 -488.015625 C 170.632812 -488.015625 162.414062 -487.097656 150.625 -485.265625 C 138.84375 -483.441406 125.566406 -480.867188 110.796875 -477.546875 C 96.023438 -474.234375 81.414062 -470.582031 66.96875 -466.59375 C 52.53125 -462.613281 40.164062 -458.300781 29.875 -453.65625 Z M 29.875 -497.96875 "/></g></g></g><g fill="#ffffff" fill-opacity="1"><g transform="translate(444.977675, 514.478593)"><g><path d="M 273.390625 9.953125 C 239.191406 9.953125 207.070312 3.8125 177.03125 -8.46875 C 146.988281 -20.75 120.59375 -38.34375 97.84375 -61.25 C 75.101562 -84.15625 57.257812 -111.457031 44.3125 -143.15625 C 31.363281 -174.863281 24.890625 -210.140625 24.890625 -248.984375 C 24.890625 -287.828125 31.363281 -323.097656 44.3125 -354.796875 C 57.257812 -386.503906 75.101562 -413.8125 97.84375 -436.71875 C 120.59375 -459.625 146.988281 -477.21875 177.03125 -489.5 C 207.070312 -501.78125 239.191406 -507.921875 273.390625 -507.921875 C 307.578125 -507.921875 339.691406 -501.78125 369.734375 -489.5 C 399.785156 -477.21875 426.265625 -459.625 449.171875 -436.71875 C 472.078125 -413.8125 490 -386.503906 502.9375 -354.796875 C 515.882812 -323.097656 522.359375 -287.828125 522.359375 -248.984375 C 522.359375 -210.140625 515.882812 -174.863281 502.9375 -143.15625 C 490 -111.457031 472.078125 -84.15625 449.171875 -61.25 C 426.265625 -38.34375 399.785156 -20.75 369.734375 -8.46875 C 339.691406 3.8125 307.578125 9.953125 273.390625 9.953125 Z M 64.734375 -248.984375 C 64.734375 -211.804688 70.128906 -177.941406 80.921875 -147.390625 C 91.710938 -116.847656 106.734375 -90.539062 125.984375 -68.46875 C 145.242188 -46.394531 167.40625 -29.460938 192.46875 -17.671875 C 217.53125 -5.890625 244.503906 0 273.390625 0 C 302.265625 0 329.316406 -5.890625 354.546875 -17.671875 C 379.785156 -29.460938 401.945312 -46.394531 421.03125 -68.46875 C 440.125 -90.539062 455.144531 -116.847656 466.09375 -147.390625 C 477.050781 -177.941406 482.53125 -211.804688 482.53125 -248.984375 C 482.53125 -286.492188 477.050781 -320.4375 466.09375 -350.8125 C 455.144531 -381.195312 440.125 -407.425781 421.03125 -429.5 C 401.945312 -451.570312 379.785156 -468.5 354.546875 -480.28125 C 329.316406 -492.070312 302.265625 -497.96875 273.390625 -497.96875 C 244.503906 -497.96875 217.53125 -492.070312 192.46875 -480.28125 C 167.40625 -468.5 145.242188 -451.570312 125.984375 -429.5 C 106.734375 -407.425781 91.710938 -381.195312 80.921875 -350.8125 C 70.128906 -320.4375 64.734375 -286.492188 64.734375 -248.984375 Z M 64.734375 -248.984375 "/></g></g></g><g fill="#ffffff" fill-opacity="1"><g transform="translate(992.242976, 514.478593)"><g><path d="M 34.859375 63.734375 L 40.828125 54.28125 C 47.140625 59.59375 55.359375 63.820312 65.484375 66.96875 C 75.609375 70.125 87.476562 71.703125 101.09375 71.703125 C 121.675781 71.703125 138.023438 67.054688 150.140625 57.765625 C 162.253906 48.472656 171.050781 36.769531 176.53125 22.65625 C 182.007812 8.550781 184.75 -5.972656 184.75 -20.921875 L 184.75 -497.96875 L 224.578125 -497.96875 L 224.578125 -34.359375 C 224.578125 -22.742188 222.503906 -10.210938 218.359375 3.234375 C 214.210938 16.679688 207.40625 29.378906 197.9375 41.328125 C 188.476562 53.285156 176.113281 63 160.84375 70.46875 C 145.570312 77.9375 126.984375 81.671875 105.078125 81.671875 C 89.804688 81.671875 76.609375 80.257812 65.484375 77.4375 C 54.359375 74.613281 44.148438 70.046875 34.859375 63.734375 Z M 34.859375 63.734375 "/></g></g></g><g fill="#ffffff" fill-opacity="1"><g transform="translate(1256.663343, 514.478593)"><g><path d="M 39.84375 0 L 39.84375 -497.96875 L 79.671875 -497.96875 L 79.671875 0 Z M 39.84375 0 "/></g></g></g></g></g></svg>